<?xml version="1.0" encoding="utf-8"?>
<!-- Generator: Adobe Illustrator 16.0.0, SVG Export Plug-In . SVG Version: 6.00 Build 0)  -->
<!DOCTYPE svg PUBLIC "-//W3C//DTD SVG 1.1//EN" "http://www.w3.org/Graphics/SVG/1.1/DTD/svg11.dtd">
<svg version="1.1" id="Layer_1" xmlns="http://www.w3.org/2000/svg" xmlns:xlink="http://www.w3.org/1999/xlink" x="0px" y="0px"
	 width="100px" height="100px" viewBox="0 0 100 100" enable-background="new 0 0 100 100" xml:space="preserve">
<circle fill="#808285" stroke="#D1D3D4" stroke-miterlimit="10" cx="49.25" cy="48.427" r="40.87"/>
<line fill="none" stroke="#FFF200" stroke-width="5" stroke-miterlimit="10" x1="11.91" y1="43.608" x2="35.99" y2="19.527"/>
<line fill="none" stroke="#FFF200" stroke-width="5" stroke-miterlimit="10" x1="12.562" y1="20.179" x2="36.643" y2="44.26"/>
<line fill="none" stroke="#FFF200" stroke-width="5" stroke-miterlimit="10" x1="54.856" y1="43.608" x2="78.937" y2="19.527"/>
<line fill="none" stroke="#FFF200" stroke-width="5" stroke-miterlimit="10" x1="55.508" y1="20.179" x2="79.589" y2="44.26"/>
<g>
	<path fill="#FFCCCC" d="M55.334,76.333C55.667,82.333,58,93,65.667,93s12.667-18.333,6-23.333"/>
	<g>
		<path fill="#FF9999" d="M52.834,76.333c0.56,8.138,5.567,23.886,16.827,18.028c7.991-4.157,10.727-20.5,3.773-26.462
			c-2.434-2.087-5.987,1.434-3.535,3.535c4.739,4.064,2.053,13.449-1.445,17.497c-6.364,7.363-10.354-8.732-10.62-12.599
			C57.614,73.135,52.612,73.113,52.834,76.333L52.834,76.333z"/>
	</g>
</g>
<g>
	<g>
		<path fill="#FFF200" d="M28.732,62.268c6.598,8.339,16.895,14.366,27.607,14.971C68.634,77.932,75.096,68.014,76.5,57
			c0.407-3.192-4.598-3.153-5,0c-1.239,9.717-6.847,16.062-16.972,15.102c-8.664-0.822-17.003-6.725-22.261-13.369
			C30.268,56.204,26.754,59.769,28.732,62.268L28.732,62.268z"/>
	</g>
</g>
</svg>
